<?xml version="1.0" encoding="utf-8"?>
<!-- Generator: Adobe Illustrator 21.0.0, SVG Export Plug-In . SVG Version: 6.00 Build 0)  -->
<svg version="1.1" id="Layer_1" xmlns="http://www.w3.org/2000/svg" xmlns:xlink="http://www.w3.org/1999/xlink" x="0px" y="0px"
	 viewBox="0 0 300 300" style="enable-background:new 0 0 300 300;" xml:space="preserve">
<style type="text/css">
	.st0{fill:#FFC83D;}
	.st1{fill:#CCCCCC;}
	.st2{fill:#EBA300;}
</style>
<g>
	<path d="M253,135.6v115.9c0,7.1-5.8,12.9-12.9,12.9H59.9c-7.1,0-12.9-5.8-12.9-12.9V135.6c0-7.1,5.8-12.9,12.9-12.9h19.3v-16.3
		c0-6.5,0.8-12.8,2.5-18.8c1.7-6,4-11.7,7.1-16.9c3.1-5.3,6.8-10,11.1-14.3c4.3-4.3,9.1-8,14.3-11.1c5.2-3.1,10.8-5.5,16.9-7.2
		c6-1.7,12.3-2.6,18.8-2.6s12.8,0.8,18.8,2.6c6,1.7,11.7,4.1,16.9,7.2c5.3,3.1,10,6.8,14.3,11.1c4.3,4.3,8,9.1,11.1,14.3
		c3.1,5.3,5.5,10.9,7.2,16.9c1.7,6,2.6,12.3,2.6,18.8v16.3h19.3C247.3,122.7,253,128.5,253,135.6z"/>
	<path class="st0" d="M232.7,251.5H67.3c-4.1,0-7.4-3.3-7.4-7.4V143c0-4.1,3.3-7.4,7.4-7.4h165.4c4.1,0,7.4,3.3,7.4,7.4v101.1
		C240.1,248.2,236.8,251.5,232.7,251.5z"/>
	<path class="st0" d="M232.7,251.5H67.3c-4.1,0-7.4-3.3-7.4-7.4V143c0-4.1,3.3-7.4,7.4-7.4h165.4c4.1,0,7.4,3.3,7.4,7.4v101.1
		C240.1,248.2,236.8,251.5,232.7,251.5z"/>
	<path class="st1" d="M150,48.5c5.3,0,10.5,0.7,15.4,2.1c5,1.4,9.6,3.3,13.8,5.9c4.3,2.5,8.2,5.6,11.7,9.1c3.5,3.5,6.6,7.4,9.1,11.7
		c2.5,4.3,4.5,8.9,5.9,13.8c1.4,5,2.1,10.1,2.1,15.4v47.1H195v-47.1c0-6.2-1.2-12.1-3.5-17.5c-2.4-5.5-5.6-10.2-9.7-14.3
		c-4.1-4.1-8.9-7.3-14.3-9.7c-5.5-2.4-11.3-3.5-17.5-3.5c-6.2,0-12.1,1.2-17.5,3.5c-5.5,2.4-10.2,5.6-14.3,9.7
		c-4.1,4.1-7.3,8.9-9.7,14.3c-2.4,5.5-3.5,11.3-3.5,17.5v50.1H92v-50.1c0-5.3,0.7-10.5,2.1-15.4c1.4-5,3.3-9.6,5.9-13.8
		c2.5-4.3,5.6-8.2,9.1-11.7c3.5-3.5,7.4-6.6,11.7-9.1c4.3-2.5,8.9-4.5,13.8-5.9C139.5,49.1,144.7,48.5,150,48.5z"/>
	<path class="st0" d="M240.1,143v101.1c0,2-0.8,3.9-2.2,5.3c-1.3,1.4-3.2,2.2-5.3,2.2H67.3c-2.1,0-3.9-0.8-5.3-2.2
		c-1.3-1.3-2.2-3.2-2.2-5.3V143c0-0.3,0-0.6,0.1-1c0.5-3.7,3.6-6.5,7.4-6.5h165.4c3.8,0,6.9,2.8,7.4,6.5
		C240.1,142.4,240.1,142.7,240.1,143z"/>
	<path class="st2" d="M240.1,149.2L178,180.3l62.1,62.1v1.7c0,2-0.8,3.9-2.2,5.3l-66-66c-3.7,1.9-7.4,3.6-11.1,5.4
		c-3.7,1.7-7.3,3.6-10.9,5.7c-3.6-2-7.2-3.9-10.9-5.7c-3.7-1.7-7.4-3.5-11.1-5.4l-66,66c-1.3-1.3-2.2-3.2-2.2-5.3v-1.7l62.1-62.1
		l-62.1-31.1V143c0-0.3,0-0.6,0.1-1l90.1,45l90.1-45c0,0.3,0.1,0.6,0.1,1V149.2z"/>
</g>
</svg>
